<svg xmlns="http://www.w3.org/2000/svg" viewBox="0 0 32 32" fill="none" stroke="#000" stroke-width="2" stroke-linecap="round" stroke-linejoin="round" aria-hidden="true">
  <path d="M7 27c0 1.1-.9 2-2 2s-2-.9-2-2 2-3 2-3 2 1.9 2 3z" />
  <path d="M3.6 19.6c.9.9 2.3.9 3.2 0l13-12.9c-1.1-1.1-2.9-1.1-4 0l-4 4c-2.2 2.2-4.7 4-7.6 5.2-1.4.7-1.7 2.6-.6 3.7z" />
  <path d="M19.8 6.7L28 16c1.3 1.5 1.2 3.7-.2 5.1l-5.6 5.6c-1.4 1.4-3.6 1.5-5.1.2l-9.3-8.2" />
  <circle cx="18" cy="17" r="2" />
  <path d="M19.3 6.3C23 3.5 26 2 27 3c1.4 1.4-2 7-7.6 12.6" />
</svg>
