<svg xmlns="http://www.w3.org/2000/svg" fill="none" viewBox="0 0 24 24" stroke-width="1.5" stroke="#000" aria-hidden="true">
  <path stroke-linecap="round" stroke-linejoin="round" d="M3.75 6A.75.75 0 0 1 4.5 5.25h6a.75.75 0 0 1 .75.75v6a.75.75 0 0 1-.75.75h-6a.75.75 0 0 1-.75-.75v-6Zm9 0a.75.75 0 0 1 .75-.75h6a.75.75 0 0 1 .75.75v6a.75.75 0 0 1-.75.75h-6a.75.75 0 0 1-.75-.75v-6Zm-9 9a.75.75 0 0 1 .75-.75h6a.75.75 0 0 1 .75.75v6a.75.75 0 0 1-.75.75h-6a.75.75 0 0 1-.75-.75v-6Zm9 0a.75.75 0 0 1 .75-.75h6a.75.75 0 0 1 .75.75v6a.75.75 0 0 1-.75.75h-6a.75.75 0 0 1-.75-.75v-6Z" />
</svg>
